{"title":"Satya 2 (2013) 1CD DVDScrRip Xvid MP3 ESub - M2Tv","uid":9171506,"size":730586421,"categoryP":"video","categoryS":"movies","magnet":"?xt=urn:btih:7b4032bb1a977db35862ea0ed9a1ebe3594c497d&amp;dn=Satya+2+%282013%29+1CD+DVDScrRip+Xvid+MP3+ESub+-+M2Tv&amp;tr=udp%3A%2F%2Ftracker.openbittorrent.com%3A80&amp;tr=udp%3A%2F%2Fopen.demonii.com%3A1337&amp;tr=udp%3A%2F%2Ftracker.coppersurfer.tk%3A6969&amp;tr=udp%3A%2F%2Fexodus.desync.com%3A6969","seeders":1,"leechers":0,"uploader":"m2tv","files":22,"time":1384079552,"description":"Screenshot : http://s5.postimg.org/73c4917fp/Satya_2_2013_1_CD_DVDScr_Rip_Xvid_MP3_ESub_M2_T.png]\n\nGeneral\nFormat                                   : AVI\nFormat/Info                              : Audio Video Interleave\nFile size                                : 694 MiB\nDuration                                 : 2h 17mn\nOverall bit rate                         : 707 Kbps\n\nVideo\nID                                       : 0\nFormat                                   : MPEG-4 Visual\nFormat profile                           : Advanced Simple@L5\nFormat settings, BVOP                    : 2\nFormat settings, QPel                    : Yes\nFormat settings, GMC                     : No warppoints\nFormat settings, Matrix                  : Default (H.263)\nCodec ID                                 : XVID\nCodec ID/Hint                            : XviD\nDuration                                 : 2h 17mn\nBit rate                                 : 605 Kbps\nWidth                                    : 640 pixels\nHeight                                   : 272 pixels\nDisplay aspect ratio                     : 2.35:1\nFrame rate                               : 23.976 fps\nColor space                              : YUV\nChroma subsampling                       : 4:2:0\nBit depth                                : 8 bits\nScan type                                : Progressive\nCompression mode                         : Lossy\nBits/(Pixel*Frame)                       : 0.145\nStream size                              : 594 MiB (86%)\nWriting library                          : XviD 1.2.1 (UTC 2008-12-04)\n\nAudio\nID                                       : 1\nFormat                                   : MPEG Audio\nFormat version                           : Version 1\nFormat profile                           : Layer 3\nMode                                     : Joint stereo\nMode extension                           : MS Stereo\nCodec ID                                 : 55\nCodec ID/Hint                            : MP3\nDuration                                 : 2h 17mn\nBit rate mode                            : Constant\nBit rate                                 : 96.0 Kbps\nChannel(s)                               : 2 channels\nSampling rate                            : 32.0 KHz\nCompression mode                         : Lossy\nStream size                              : 94.2 MiB (14%)\nAlignment                                : Aligned on interleaves\nInterleave, duration                     : 167 ms (4.00 video frames)\nInterleave, preload duration             : 216 ms\nWriting library                          : LAME3.99r","torrent":{"xt":"urn:btih:7b4032bb1a977db35862ea0ed9a1ebe3594c497d","amp;dn":"Satya+2+%282013%29+1CD+DVDScrRip+Xvid+MP3+ESub+-+M2Tv","amp;tr":["udp%3A%2F%2Ftracker.openbittorrent.com%3A80","udp%3A%2F%2Fopen.demonii.com%3A1337","udp%3A%2F%2Ftracker.coppersurfer.tk%3A6969","udp%3A%2F%2Fexodus.desync.com%3A6969"],"infoHash":"7b4032bb1a977db35862ea0ed9a1ebe3594c497d","infoHashBuffer":{"type":"Buffer","data":[123,64,50,187,26,151,125,179,88,98,234,14,217,161,235,227,89,76,73,125]},"announce":[],"urlList":[]}}